<svg width="24" height="24" viewBox="0 0 24 24" fill="none" xmlns="http://www.w3.org/2000/svg">
<path fill-rule="evenodd" clip-rule="evenodd" d="M17.7666 9.35038L16.2082 7.79199L14.6498 9.35038L16.2082 10.9088L17.7666 12.4672L19.3249 10.9088L17.7666 9.35038Z" fill="#FFD815"/>
<path fill-rule="evenodd" clip-rule="evenodd" d="M17.7664 0L16.208 1.55839L17.7664 3.11678L19.3248 1.55839L17.7664 0Z" fill="#FF9813"/>
<path fill-rule="evenodd" clip-rule="evenodd" d="M24 6.23344L22.4416 4.67505L20.8832 6.23344L22.4416 7.79183L24 6.23344Z" fill="#FF9813"/>
<path fill-rule="evenodd" clip-rule="evenodd" d="M14.6498 18.7006L16.2082 20.259L17.7666 18.7006L16.2082 17.1422L14.6498 18.7006Z" fill="#FF9813"/>
<path fill-rule="evenodd" clip-rule="evenodd" d="M3.74097 7.79191L5.29936 9.3503L6.85774 7.79191L5.29936 6.23352L3.74097 7.79191Z" fill="#FF9813"/>
<path fill-rule="evenodd" clip-rule="evenodd" d="M11.5331 0L9.97473 1.55839L11.5331 3.11678L13.0914 1.55839L11.5331 0Z" fill="#FF9813"/>
<path fill-rule="evenodd" clip-rule="evenodd" d="M5.29956 3.11686L6.85795 4.67525L8.41634 3.11686L6.85795 1.55847L5.29956 3.11686Z" fill="#FF9813"/>
<path fill-rule="evenodd" clip-rule="evenodd" d="M22.4416 10.9087L20.8832 12.4671L22.4416 14.0255L24 12.4671L22.4416 10.9087Z" fill="#FF9813"/>
<path fill-rule="evenodd" clip-rule="evenodd" d="M19.325 17.1421L20.8833 18.7005L22.4417 17.1421L20.8833 15.5837L19.325 17.1421Z" fill="#FF9813"/>
<path fill-rule="evenodd" clip-rule="evenodd" d="M17.7665 12.4669L16.2081 10.9085L14.6497 12.4669L13.0913 10.9085L11.533 9.35011L13.0913 7.79172L11.533 6.23344L9.97467 4.67505L8.41629 6.23344L9.97467 7.79172L8.41629 9.35011L9.97467 10.9085L8.41629 12.4669L7.63704 11.6877L6.07865 13.246L7.63704 14.8044L6.07865 16.3628L4.59778 17.8438L3.11677 19.3248L1.55839 20.8832L0 22.4415L1.55839 23.9999L3.11677 22.4415L4.67517 20.8832L6.15603 19.4022L6.23355 19.3248L7.63704 17.9212L7.71442 17.8438L9.19543 16.3628L10.7538 17.9212L12.3122 16.3628L11.533 15.5837L13.0913 14.0253L14.6497 15.5837L16.2081 14.0253L17.7665 15.5837L19.3249 14.0253L17.7665 12.4669Z" fill="#5B5B72"/>
<path fill-rule="evenodd" clip-rule="evenodd" d="M17.7665 6.23344L16.2081 4.67505L14.6497 6.23344L13.0913 4.67505L11.533 6.23344L13.0913 7.79183L11.533 9.35021L13.0913 10.9086L14.6497 12.4669L16.2081 10.9086L14.6497 9.35021L16.2081 7.79183L17.7665 9.35021L19.3249 7.79183L17.7665 6.23344Z" fill="#FF9813"/>
</svg>
