<svg width="40" height="37" viewBox="0 0 40 37" fill="none" xmlns="http://www.w3.org/2000/svg">
<path d="M16.8421 19.1388C18.756 20.2871 19.7129 20.8612 20.8612 20.8612C22.0096 20.8612 22.9665 20.2871 24.8804 19.1388L37.1292 12.0574C37.7034 11.6746 38.0861 11.1005 38.0861 10.5263C38.0861 9.95215 37.7034 9.1866 37.1292 8.80383L24.689 1.72249C22.7751 0.574163 21.8182 0 20.6699 0C19.5215 0 18.5646 0.574163 16.6507 1.72249L6.1244 7.84689C6.1244 7.84689 5.93301 7.84689 5.93301 8.03828C2.29665 10.1435 -4.48565e-08 14.1627 0 18.3732V18.756C0 22.9665 2.29665 26.7943 5.93301 29.0909L6.1244 29.2823L12.823 33.11C16.6507 35.4067 18.756 36.555 20.8612 36.555C22.9665 36.555 24.8804 35.4067 28.8995 33.11L35.9809 29.0909C37.8947 27.9426 38.8517 27.3684 39.4258 26.4115C40 25.4545 40 24.3062 40 22.0096V17.6077C40 17.0335 39.6172 16.4593 39.0431 16.0766C38.4689 15.6938 37.8947 15.6938 37.3206 16.0766L22.7751 24.4976C21.8182 25.0718 21.244 25.2632 20.8612 25.2632C20.2871 25.2632 19.9043 25.0718 18.9474 24.4976L9.1866 18.756C8.42105 18.3732 8.22966 18.3732 8.03828 18.1818C7.6555 18.1818 7.08134 18.3732 6.88995 18.756V20.4785C6.88995 20.8612 7.27273 21.244 7.46411 21.6268C7.6555 22.0096 7.84689 22.0096 8.22967 22.3923L18.756 28.5167C19.7129 29.0909 20.2871 29.2823 20.6699 29.2823C21.244 29.2823 21.6268 29.0909 22.5837 28.5167L35.4067 21.0526C35.7895 20.8612 35.9809 20.6699 35.9809 20.8612C36.1722 20.8612 36.1722 21.0526 36.1722 21.4354V23.3493C36.1722 23.9234 36.1722 24.1148 35.9809 24.4976C35.7895 24.689 35.5981 24.8804 35.0239 25.0718L24.4976 31.1962C22.5837 32.3445 21.6268 32.9187 20.4785 32.9187C19.3301 32.9187 18.3732 32.3445 16.4593 31.1962L6.50718 25.4545C4.5933 24.3062 3.44498 22.0096 3.44498 19.5215V17.6077C3.44498 16.2679 4.21053 15.1196 5.35885 14.3541C6.31579 13.7799 7.6555 13.7799 8.61244 14.3541L16.8421 19.1388Z" fill="black"/>
</svg>
