<svg width="1248" height="460" viewBox="0 0 1248 460" fill="none" xmlns="http://www.w3.org/2000/svg">
<path d="M324 0H1184V400H324V0Z" fill="white"/>
<path d="M324 400H1184L1167.65 449.06C1165.47 455.593 1159.35 460 1152.47 460H355.532C348.645 460 342.531 455.593 340.353 449.06L324 400Z" fill="white"/>
<rect x="64" y="160" width="260" height="240" fill="white"/>
<path d="M0 192C0 174.327 14.3269 160 32 160H64V400H32C14.3269 400 0 385.673 0 368V192Z" fill="white"/>
<rect x="84" width="240" height="160" fill="white"/>
<path d="M20 135.679C20 143.832 26.1302 150.681 34.2331 151.581L74 156L84 160V0H74L62 8L33.7373 12.0375C25.8549 13.1636 20 19.9143 20 27.8767V135.679Z" fill="white"/>
<path d="M1248 24.3207C1248 16.1679 1241.87 9.31887 1233.77 8.41854L1194 4L1184 0V160H1196L1206 152L1234.26 147.962C1242.15 146.836 1248 140.086 1248 132.123V24.3207Z" fill="white"/>
</svg>
