<svg width="120" height="160" viewBox="0 0 120 160" fill="none" xmlns="http://www.w3.org/2000/svg">
<rect x="1" y="1" width="118" height="158" rx="7" fill="url(#paint0_linear_96_374)" stroke="url(#paint1_linear_96_374)" stroke-width="2"/>
<g clip-path="url(#clip0_96_374)">
<circle cx="60" cy="68" r="40" fill="url(#paint2_linear_96_374)"/>
<path d="M60 68H20C20 45.9086 37.9086 28 60 28V68Z" fill="url(#paint3_linear_96_374)"/>
<circle cx="60" cy="68" r="37.75" fill="url(#paint4_linear_96_374)" stroke="url(#paint5_linear_96_374)" stroke-width="0.5"/>
<circle cx="60" cy="68" r="34" fill="url(#paint6_linear_96_374)" stroke="url(#paint7_linear_96_374)" stroke-width="2"/>
<path d="M60 72C51.0286 72 42.9117 68.1247 36.9912 64.1878C34.0392 62.2248 31.6551 60.2611 30.0106 58.7894C29.1888 58.0539 28.553 57.4425 28.1245 57.0171C28.039 56.9321 27.9617 56.8545 27.8928 56.7849C32.527 43.5165 45.1534 34 60 34C74.8466 34 87.473 43.5165 92.1072 56.7849C92.0383 56.8545 91.9611 56.9321 91.8755 57.0171C91.447 57.4425 90.8112 58.0539 89.9894 58.7894C88.3449 60.2611 85.9608 62.2248 83.0088 64.1878C77.0883 68.1247 68.9714 72 60 72Z" fill="#8C007E" stroke="url(#paint8_linear_96_374)" stroke-width="2"/>
<path d="M60 40V46" stroke="#FFBF66" stroke-width="2" stroke-linecap="round" stroke-linejoin="round"/>
<path d="M85.3481 52.5L80.1519 55.5" stroke="#FFBF66" stroke-width="2" stroke-linecap="round" stroke-linejoin="round"/>
<path d="M34.6519 52.5L39.8481 55.5" stroke="#FFBF66" stroke-width="2" stroke-linecap="round" stroke-linejoin="round"/>
<path d="M67.0176 42.5681L65.9824 46.4318" stroke="#FFBF66" stroke-width="2" stroke-linecap="round" stroke-linejoin="round"/>
<path d="M79.4142 48.5858L76.5858 51.4142" stroke="#FFBF66" stroke-width="2" stroke-linecap="round" stroke-linejoin="round"/>
<path d="M40.5858 48.5858L43.4142 51.4142" stroke="#FFBF66" stroke-width="2" stroke-linecap="round" stroke-linejoin="round"/>
<path d="M52.9824 42.5681L54.0176 46.4318" stroke="#FFBF66" stroke-width="2" stroke-linecap="round" stroke-linejoin="round"/>
<path d="M45.5 43.4019L48.5 48.5981" stroke="#FFBF66" stroke-width="2" stroke-linecap="round" stroke-linejoin="round"/>
<path d="M74.5 43.4019L71.5 48.5981" stroke="#FFBF66" stroke-width="2" stroke-linecap="round" stroke-linejoin="round"/>
<path d="M50.25 53L52.5 60.5H43L50.25 53Z" fill="url(#paint9_linear_96_374)" stroke="url(#paint10_linear_96_374)" stroke-width="2" stroke-linejoin="round"/>
<path d="M50.25 53H60L52.5 60.5L50.25 53Z" fill="url(#paint11_linear_96_374)" stroke="url(#paint12_linear_96_374)" stroke-width="2" stroke-linejoin="round"/>
<path d="M60 53L67.5 60.5H52.5L60 53Z" fill="url(#paint13_linear_96_374)" stroke="url(#paint14_linear_96_374)" stroke-width="2" stroke-linejoin="round"/>
<path d="M60 53H69.75L67.5 60.5L60 53Z" fill="url(#paint15_linear_96_374)" stroke="url(#paint16_linear_96_374)" stroke-width="2" stroke-linejoin="round"/>
<path d="M69.75 53L77 60.5H67.5L69.75 53Z" fill="url(#paint17_linear_96_374)" stroke="url(#paint18_linear_96_374)" stroke-width="2" stroke-linejoin="round"/>
<path d="M43 60.5H77L60 85L43 60.5Z" fill="url(#paint19_linear_96_374)" stroke="url(#paint20_linear_96_374)" stroke-width="2" stroke-linejoin="round"/>
<path d="M52.5 60.5H67.5L60 85L52.5 60.5Z" fill="url(#paint21_linear_96_374)" stroke="url(#paint22_linear_96_374)" stroke-width="2" stroke-linejoin="round"/>
<path d="M30.5479 68.817C30.5358 68.6083 30.531 68.3993 30.5336 68.1898C30.5327 67.9841 30.5495 67.7683 30.5842 67.5422L34.274 67.3285C34.3171 67.5022 34.352 67.693 34.3788 67.9009C34.4092 68.1084 34.4296 68.3019 34.44 68.4813C34.454 68.7229 34.4485 68.9454 34.4235 69.1489C34.4025 69.3557 34.3541 69.5348 34.2784 69.6861C34.2027 69.8374 34.0976 69.9574 33.9632 70.046C33.8326 70.138 33.6667 70.1899 33.4653 70.2015C33.1615 70.2191 32.9133 70.0866 32.7206 69.804C32.6431 70.0509 32.5282 70.2228 32.3758 70.3198C32.2235 70.4167 32.0485 70.4709 31.8509 70.4824C31.4519 70.5055 31.1432 70.3765 30.9249 70.0953C30.7068 69.8178 30.5812 69.3917 30.5479 68.817ZM32.2304 68.2843L31.2475 68.3412C31.2438 68.4039 31.2422 68.4719 31.2428 68.5453C31.2434 68.6188 31.2462 68.6994 31.2513 68.7872C31.2662 69.0435 31.3148 69.2482 31.3971 69.4013C31.4794 69.5545 31.6194 69.6254 31.8171 69.6139C31.9928 69.6037 32.1134 69.5306 32.179 69.3946C32.2482 69.2584 32.2757 69.0676 32.2615 68.8224L32.2304 68.2843ZM32.8838 68.2464L32.9079 68.6637C32.9232 68.9273 32.9671 69.1139 33.0395 69.2235C33.1157 69.333 33.2288 69.3834 33.3789 69.3747C33.5326 69.3658 33.6372 69.3009 33.6926 69.1802C33.7481 69.0594 33.7692 68.8856 33.7561 68.6586C33.7518 68.5854 33.7454 68.5068 33.7369 68.4229C33.732 68.3387 33.724 68.2638 33.7129 68.1984L32.8838 68.2464Z" fill="url(#paint23_linear_96_374)"/>
<path d="M34.7077 71.866L34.8749 72.7076L31.1364 73.4503L30.9692 72.6087L34.7077 71.866Z" fill="url(#paint24_linear_96_374)"/>
<path d="M31.5614 75.4659L35.1823 74.2756L35.9792 76.7L35.2947 76.925L34.7658 75.3157L34.0081 75.5648L34.4787 76.9964L33.7943 77.2214L33.3237 75.7898L31.8293 76.281L31.5614 75.4659Z" fill="url(#paint25_linear_96_374)"/>
<path d="M36.4304 77.8308L36.7967 78.6067L33.3501 80.234L32.9838 79.4581L36.4304 77.8308Z" fill="url(#paint26_linear_96_374)"/>
<path d="M38.1583 81.0733C38.4669 81.5506 38.6192 81.9717 38.6151 82.3368C38.614 82.6998 38.4226 83.0048 38.0408 83.2517C37.656 83.5006 37.2937 83.5514 36.954 83.4043C36.6174 83.2552 36.2938 82.9404 35.9832 82.4601L35.8369 82.2338L34.7654 82.9267L34.2995 82.2062L37.454 80.1664C37.5863 80.3035 37.7154 80.4559 37.8412 80.6234C37.967 80.7909 38.0727 80.9409 38.1583 81.0733ZM37.5739 81.5167C37.5401 81.4643 37.5047 81.413 37.4677 81.3626C37.4328 81.3154 37.4019 81.2743 37.3749 81.2393L36.4512 81.8366L36.5975 82.0629C36.7588 82.3123 36.9141 82.4782 37.0635 82.5607C37.2128 82.6431 37.3799 82.6246 37.5646 82.5051C37.6539 82.4474 37.7169 82.3827 37.7535 82.311C37.7921 82.2424 37.8084 82.1663 37.8024 82.0828C37.8016 82.0004 37.7794 81.9121 37.736 81.818C37.6956 81.7218 37.6416 81.6214 37.5739 81.5167Z" fill="url(#paint27_linear_96_374)"/>
<path d="M38.7081 88.0835C38.7777 87.9643 38.8463 87.8386 38.9139 87.7064C38.984 87.5768 39.054 87.4473 39.1241 87.3178L38.1168 86.2266C37.9821 86.2861 37.8461 86.3442 37.7089 86.401C37.5742 86.4605 37.4447 86.5202 37.3203 86.5801L36.716 85.9254C37.1147 85.7519 37.4856 85.5942 37.8286 85.4522C38.1716 85.3102 38.4973 85.1793 38.8057 85.0593C39.1166 84.9419 39.4128 84.8331 39.6945 84.7328C39.9813 84.6327 40.2653 84.5403 40.5463 84.4555L41.1022 85.0577C40.9927 85.3283 40.8767 85.6026 40.754 85.8806C40.634 86.156 40.5019 86.4426 40.3576 86.7405C40.2159 87.041 40.0605 87.3565 39.8916 87.6871C39.7227 88.0177 39.5359 88.3748 39.3311 88.7584L38.7081 88.0835ZM40.1767 85.3281C40.1238 85.352 40.0499 85.3828 39.955 85.4205C39.8601 85.4582 39.7507 85.5018 39.6267 85.5514C39.5028 85.6009 39.3657 85.6551 39.2154 85.714C39.0677 85.7755 38.9133 85.8407 38.7522 85.9095L39.4872 86.7057C39.5686 86.5506 39.6459 86.4019 39.7191 86.2595C39.7922 86.1172 39.8572 85.9848 39.914 85.8626C39.9733 85.743 40.0255 85.6374 40.0707 85.5458C40.1158 85.4542 40.1512 85.3816 40.1767 85.3281Z" fill="url(#paint28_linear_96_374)"/>
<path d="M43.1795 91.0418L42.7266 91.6232L40.7176 90.0585L43.0597 87.0515L43.7366 87.5787L41.8474 90.0043L43.1795 91.0418Z" fill="url(#paint29_linear_96_374)"/>
<path d="M49.9838 95.5567C49.4004 95.3478 49.0132 95.0261 48.8222 94.5915C48.6347 94.1582 48.6479 93.643 48.8618 93.0458C48.9681 92.749 49.1093 92.5016 49.2853 92.3037C49.4626 92.1023 49.6608 91.9513 49.8799 91.8507C50.1003 91.7465 50.3375 91.6932 50.5915 91.6907C50.8456 91.6883 51.1038 91.734 51.3661 91.828C51.518 91.8824 51.6517 91.9439 51.7673 92.0126C51.8842 92.0778 51.9837 92.1426 52.0657 92.2071C52.149 92.2681 52.2162 92.3253 52.2672 92.3786C52.3182 92.4319 52.3544 92.4721 52.3759 92.4993L51.9092 93.0682C51.8197 92.97 51.7082 92.8736 51.5746 92.779C51.4445 92.6856 51.2862 92.6056 51.0998 92.5388C50.9755 92.4943 50.8456 92.4711 50.7099 92.4693C50.5777 92.4687 50.4483 92.4983 50.3217 92.5581C50.1998 92.6157 50.0853 92.7071 49.9782 92.8323C49.871 92.9575 49.7803 93.1236 49.7061 93.3307C49.6468 93.4964 49.6084 93.658 49.591 93.8153C49.5783 93.9704 49.5931 94.114 49.6354 94.246C49.6811 94.3792 49.7585 94.5004 49.8674 94.6095C49.9775 94.7152 50.1258 94.8014 50.3122 94.8682C50.4296 94.9102 50.5373 94.941 50.6355 94.9606C50.7336 94.9802 50.822 94.9943 50.9007 95.003C50.9806 95.0083 51.0525 95.0087 51.1164 95.0043C51.1803 94.9999 51.2384 94.9954 51.2907 94.9908L51.2815 95.7178C51.1429 95.746 50.9601 95.7506 50.7332 95.7317C50.5063 95.7127 50.2565 95.6544 49.9838 95.5567Z" fill="url(#paint30_linear_96_374)"/>
<path d="M54.8479 92.8694C55.4109 92.9701 55.8242 93.1483 56.0876 93.404C56.3517 93.6561 56.4459 93.9933 56.3704 94.4156C56.3233 94.6791 56.2235 94.8829 56.0711 95.027C55.9229 95.1681 55.7268 95.2652 55.4826 95.3184C55.5416 95.4258 55.6016 95.5483 55.6627 95.6858C55.7244 95.8198 55.783 95.9607 55.8385 96.1084C55.8983 96.2532 55.9532 96.4046 56.0031 96.5625C56.0538 96.7168 56.0993 96.8684 56.1397 97.0171L55.1923 96.8477C55.1456 96.7127 55.0975 96.5756 55.0479 96.4363C55.002 96.2977 54.9517 96.1621 54.8972 96.0294C54.8463 95.8974 54.7942 95.7726 54.7407 95.655C54.6879 95.5338 54.6331 95.4235 54.5764 95.3239L54.1596 95.2494L53.9145 96.6191L53.07 96.468L53.7314 92.7702C53.9219 92.7671 54.1159 92.7757 54.3134 92.7961C54.5145 92.8172 54.6927 92.8416 54.8479 92.8694ZM54.7678 93.5982C54.7064 93.5872 54.6502 93.579 54.599 93.5736C54.5514 93.5688 54.5057 93.5643 54.4617 93.5602L54.2796 94.578L54.5179 94.6206C54.8355 94.6774 55.07 94.6784 55.2213 94.6235C55.3727 94.5687 55.4655 94.4456 55.4997 94.2543C55.5326 94.0702 55.4855 93.9277 55.3583 93.8267C55.2353 93.7228 55.0385 93.6466 54.7678 93.5982Z" fill="url(#paint31_linear_96_374)"/>
<path d="M57.7971 97.2115L57.8707 93.4007L60.4442 93.4504L60.4303 94.1707L58.7146 94.1376L58.7002 94.8855L60.2234 94.9149L60.2098 95.6187L58.6866 95.5893L58.6688 96.5077L60.511 96.5432L60.4971 97.2636L57.7971 97.2115Z" fill="url(#paint32_linear_96_374)"/>
<path d="M63.1903 96.4135C63.2307 96.4111 63.2766 96.4079 63.3279 96.4038C63.3823 96.3956 63.4457 96.386 63.5182 96.375C63.9424 96.3109 64.2398 96.1565 64.4105 95.9118C64.5847 95.6667 64.6434 95.3556 64.5863 94.9785C64.5265 94.5834 64.3834 94.2991 64.1569 94.1257C63.9304 93.9523 63.605 93.8977 63.1809 93.9619C63.1229 93.9706 63.0633 93.9815 63.0022 93.9945C62.9406 94.0038 62.8831 94.0162 62.8299 94.0317L63.1903 96.4135ZM65.4618 94.846C65.5112 95.1723 65.5035 95.4646 65.4388 95.7228C65.374 95.9811 65.2594 96.2043 65.0951 96.3923C64.9343 96.5798 64.7258 96.7337 64.4696 96.8541C64.2134 96.9744 63.9185 97.0599 63.585 97.1103C63.4327 97.1334 63.254 97.153 63.0488 97.1692C62.8441 97.1891 62.6409 97.1939 62.4391 97.1836L61.8836 93.5129C62.0739 93.447 62.2733 93.3927 62.482 93.35C62.6937 93.3032 62.8756 93.2682 63.0279 93.2452C63.3506 93.1963 63.6479 93.1884 63.9199 93.2214C64.1955 93.2539 64.4394 93.3338 64.6515 93.4612C64.8636 93.5885 65.0388 93.766 65.1771 93.9935C65.3153 94.2211 65.4103 94.5052 65.4618 94.846Z" fill="url(#paint33_linear_96_374)"/>
<path d="M66.5097 92.6498L67.3315 92.4035L68.4257 96.0546L67.6038 96.3009L66.5097 92.6498Z" fill="url(#paint34_linear_96_374)"/>
<path d="M71.4912 90.7993L71.7886 91.4676L70.7385 91.9351L71.991 94.7489L71.2072 95.0978L69.9546 92.284L68.9045 92.7515L68.607 92.0832L71.4912 90.7993Z" fill="url(#paint35_linear_96_374)"/>
<path d="M76.8764 87.1474C77.2954 86.7634 77.6852 86.543 78.0458 86.486C78.4039 86.4264 78.7366 86.5642 79.0438 86.8994C79.3534 87.2373 79.4641 87.586 79.3757 87.9455C79.2849 88.3022 79.0286 88.6739 78.6069 89.0603L78.4082 89.2424L79.2703 90.1831L78.6378 90.7628L76.0998 87.9933C76.2129 87.8399 76.3416 87.6872 76.4857 87.5352C76.6299 87.3832 76.7601 87.2539 76.8764 87.1474ZM77.4111 87.6495C77.3652 87.6917 77.3204 87.7351 77.277 87.7799C77.2362 87.8223 77.2008 87.8597 77.1709 87.8921L77.914 88.7031L78.1127 88.521C78.3317 88.3203 78.4693 88.1395 78.5257 87.9785C78.582 87.8174 78.5359 87.6558 78.3872 87.4936C78.3154 87.4152 78.2411 87.364 78.1643 87.3398C78.0902 87.3133 78.0125 87.3099 77.9311 87.3297C77.85 87.3443 77.7667 87.3809 77.6811 87.4394C77.593 87.4953 77.503 87.5653 77.4111 87.6495Z" fill="url(#paint36_linear_96_374)"/>
<path d="M81.1575 85.6239C81.3063 85.7372 81.4538 85.8219 81.6001 85.8779C81.7486 85.9311 81.8921 85.9574 82.0307 85.957C82.1686 85.9514 82.2987 85.9168 82.4209 85.8531C82.5431 85.7895 82.6531 85.6935 82.7508 85.5651C82.8463 85.4397 82.9085 85.3096 82.9374 85.1749C82.9684 85.0372 82.9672 84.9026 82.9337 84.7711C82.8995 84.6345 82.8359 84.5031 82.743 84.377C82.6522 84.248 82.5325 84.1269 82.3837 84.0136C82.2349 83.9003 82.0863 83.8171 81.9378 83.7639C81.7886 83.7056 81.6451 83.6793 81.5072 83.6849C81.3686 83.6854 81.2371 83.7189 81.1126 83.7854C80.9904 83.8491 80.8816 83.9436 80.7861 84.069C80.6883 84.1974 80.6265 84.3301 80.6006 84.467C80.5717 84.6017 80.5744 84.7374 80.6086 84.8741C80.6421 85.0056 80.7057 85.137 80.7993 85.2682C80.8923 85.3943 81.0117 85.5128 81.1575 85.6239ZM82.9202 83.3091C83.1798 83.5068 83.3788 83.7205 83.5172 83.9504C83.6549 84.175 83.7398 84.4056 83.7718 84.6419C83.8009 84.8761 83.7779 85.1121 83.7028 85.3498C83.63 85.5847 83.5124 85.8086 83.3503 86.0216C83.1926 86.2287 83.0102 86.3986 82.8032 86.5313C82.5961 86.664 82.3748 86.7489 82.1391 86.7861C81.9005 86.821 81.6535 86.8034 81.3981 86.7334C81.1397 86.6611 80.8807 86.5261 80.6211 86.3284C80.3615 86.1307 80.165 85.9166 80.0318 85.6861C79.8956 85.4534 79.8126 85.2173 79.7828 84.9781C79.7552 84.7359 79.7768 84.4988 79.8474 84.2668C79.9202 84.0319 80.0333 83.8139 80.1866 83.6126C80.3443 83.4054 80.5267 83.2355 80.7337 83.1028C80.9407 82.9701 81.1636 82.8863 81.4022 82.8514C81.6407 82.8165 81.8892 82.8352 82.1476 82.9074C82.403 82.9775 82.6605 83.1114 82.9202 83.3091Z" fill="url(#paint37_linear_96_374)"/>
<path d="M82.076 81.0726L82.4932 80.3229L85.8238 82.1762L85.4066 82.9259L82.076 81.0726Z" fill="url(#paint38_linear_96_374)"/>
<path d="M87.8032 77.8825C87.3078 77.9556 86.8103 78.0494 86.3107 78.164C85.8111 78.2786 85.3273 78.4188 84.8591 78.5847L87.1902 79.4795L86.8868 80.2702L83.3283 78.9045L83.5786 78.2524C83.7349 78.1828 83.9215 78.111 84.1384 78.0372C84.3553 77.9633 84.5848 77.8923 84.8269 77.8242C85.067 77.7514 85.3149 77.6836 85.5707 77.6207C85.8231 77.5566 86.0654 77.4984 86.2976 77.4461L84.1974 76.64L84.5029 75.8441L88.0613 77.2099L87.8032 77.8825Z" fill="url(#paint39_linear_96_374)"/>
<path d="M85.5016 71.6773L86.2191 71.8198L85.9951 72.9473L89.0161 73.5475L88.8489 74.389L85.8279 73.7889L85.6039 74.9163L84.8864 74.7738L85.5016 71.6773Z" fill="url(#paint40_linear_96_374)"/>
<path d="M88.8775 69.6425C88.8826 69.5216 88.8776 69.4223 88.8626 69.3446C88.844 69.2631 88.8193 69.1978 88.7883 69.1488C88.7537 69.0996 88.713 69.0649 88.6661 69.0445C88.6193 69.0242 88.5666 69.0128 88.508 69.0103C88.3834 69.005 88.2783 69.0592 88.1928 69.173C88.1035 69.2867 88.0052 69.4844 87.8978 69.7661C87.8486 69.8888 87.7938 70.0112 87.7336 70.1334C87.6697 70.2555 87.5935 70.3642 87.505 70.4595C87.4129 70.5547 87.3051 70.6309 87.1816 70.688C87.0544 70.745 86.9028 70.7697 86.727 70.7623C86.5512 70.7548 86.395 70.7151 86.2586 70.6433C86.1186 70.5713 86.0016 70.4727 85.9079 70.3476C85.8141 70.2225 85.7452 70.0728 85.7012 69.8985C85.6536 69.724 85.6344 69.5286 85.6435 69.3125C85.6544 69.0561 85.6913 68.8356 85.7542 68.6511C85.8171 68.4666 85.8841 68.3153 85.9552 68.1972L86.6205 68.4732C86.5611 68.5771 86.5084 68.6941 86.4625 68.8243C86.4131 68.9507 86.3845 69.1054 86.3767 69.2886C86.368 69.4937 86.391 69.6433 86.4457 69.7374C86.497 69.8277 86.5812 69.8753 86.6984 69.8803C86.768 69.8832 86.8273 69.8692 86.8763 69.8383C86.9254 69.8073 86.9713 69.7634 87.0141 69.7065C87.0533 69.6458 87.0911 69.5777 87.1273 69.5021C87.1601 69.4228 87.1949 69.3362 87.232 69.2423C87.3136 69.0476 87.3942 68.8786 87.4737 68.7351C87.5495 68.5916 87.6371 68.4742 87.7364 68.383C87.8358 68.2881 87.9507 68.2196 88.0809 68.1774C88.2112 68.1352 88.3679 68.118 88.551 68.1258C88.9064 68.1409 89.1777 68.2772 89.3649 68.5347C89.5485 68.7921 89.6296 69.1717 89.6083 69.6736C89.6011 69.8421 89.5837 69.9936 89.556 70.1283C89.5319 70.263 89.5029 70.3829 89.4691 70.4879C89.4354 70.5892 89.4005 70.6777 89.3643 70.7532C89.3282 70.8251 89.2944 70.886 89.2629 70.9361L88.5918 70.6653C88.6589 70.5544 88.7216 70.4176 88.7799 70.2549C88.8347 70.0884 88.8672 69.8843 88.8775 69.6425Z" fill="url(#paint41_linear_96_374)"/>
</g>
<path d="M24 0H96L92.2111 7.57771C90.856 10.288 88.0859 12 85.0557 12H34.9443C31.9141 12 29.144 10.288 27.7889 7.57771L24 0Z" fill="url(#paint42_linear_96_374)"/>
<path d="M44.6444 9.064C44.3511 9.064 44.0551 9.05333 43.7564 9.032C43.4578 9.016 43.1964 8.97867 42.9724 8.92V3.536C43.0898 3.51467 43.2151 3.496 43.3484 3.48C43.4818 3.45867 43.6178 3.44267 43.7564 3.432C43.8951 3.42133 44.0311 3.41333 44.1644 3.408C44.3031 3.40267 44.4338 3.4 44.5564 3.4C44.8924 3.4 45.2044 3.42667 45.4924 3.48C45.7804 3.528 46.0284 3.61067 46.2364 3.728C46.4498 3.84533 46.6151 4 46.7324 4.192C46.8498 4.384 46.9084 4.62133 46.9084 4.904C46.9084 5.16533 46.8444 5.38933 46.7164 5.576C46.5938 5.76267 46.4204 5.912 46.1964 6.024C46.5324 6.136 46.7804 6.30133 46.9404 6.52C47.1004 6.73867 47.1804 7.016 47.1804 7.352C47.1804 7.92267 46.9724 8.352 46.5564 8.64C46.1404 8.92267 45.5031 9.064 44.6444 9.064ZM43.9644 6.504V8.192C44.0764 8.20267 44.1964 8.21067 44.3244 8.216C44.4524 8.22133 44.5698 8.224 44.6764 8.224C44.8844 8.224 45.0764 8.21067 45.2524 8.184C45.4338 8.15733 45.5884 8.112 45.7164 8.048C45.8498 7.97867 45.9538 7.888 46.0284 7.776C46.1084 7.664 46.1484 7.52 46.1484 7.344C46.1484 7.02933 46.0338 6.81067 45.8044 6.688C45.5751 6.56533 45.2578 6.504 44.8524 6.504H43.9644ZM43.9644 5.712H44.6764C45.0604 5.712 45.3618 5.65867 45.5804 5.552C45.7991 5.44 45.9084 5.24267 45.9084 4.96C45.9084 4.69333 45.7938 4.504 45.5644 4.392C45.3404 4.28 45.0471 4.224 44.6844 4.224C44.5298 4.224 44.3911 4.22667 44.2684 4.232C44.1511 4.23733 44.0498 4.24533 43.9644 4.256V5.712ZM49.5102 3.456H50.5182V9H49.5102V3.456ZM53.1262 9V3.456H56.6302V4.312H54.1342V5.728H56.3502V6.584H54.1342V9H53.1262ZM58.8124 3.456H59.8204V9H58.8124V3.456ZM63.9964 3.4C64.8017 3.4 65.4177 3.54667 65.8444 3.84C66.2764 4.13333 66.4924 4.592 66.4924 5.216C66.4924 5.54133 66.4337 5.82133 66.3164 6.056C66.2044 6.28533 66.039 6.47467 65.8204 6.624C65.6017 6.768 65.335 6.87467 65.0204 6.944C64.7057 7.01333 64.3457 7.048 63.9404 7.048H63.4364V9H62.4284V3.536C62.663 3.48267 62.9217 3.448 63.2044 3.432C63.4924 3.41067 63.7564 3.4 63.9964 3.4ZM64.0684 4.272C63.8124 4.272 63.6017 4.28 63.4364 4.296V6.184H63.9244C64.4097 6.184 64.783 6.11733 65.0444 5.984C65.3057 5.84533 65.4364 5.58667 65.4364 5.208C65.4364 5.02667 65.4017 4.87467 65.3324 4.752C65.263 4.62933 65.167 4.53333 65.0444 4.464C64.9217 4.39467 64.775 4.34667 64.6044 4.32C64.439 4.288 64.2604 4.272 64.0684 4.272ZM72.0134 9C71.9387 8.78133 71.8614 8.56533 71.7814 8.352C71.7014 8.13867 71.624 7.92 71.5494 7.696H69.2134C69.1387 7.92 69.0614 8.14133 68.9814 8.36C68.9067 8.57333 68.832 8.78667 68.7574 9H67.7094C67.9174 8.408 68.1147 7.86133 68.3014 7.36C68.488 6.85867 68.6694 6.384 68.8454 5.936C69.0267 5.488 69.2054 5.06133 69.3814 4.656C69.5574 4.25067 69.7387 3.85067 69.9254 3.456H70.8774C71.064 3.85067 71.2454 4.25067 71.4214 4.656C71.5974 5.06133 71.7734 5.488 71.9494 5.936C72.1307 6.384 72.3147 6.85867 72.5014 7.36C72.6934 7.86133 72.8934 8.408 73.1014 9H72.0134ZM70.3814 4.528C70.2587 4.81067 70.1174 5.15467 69.9574 5.56C69.8027 5.96533 69.64 6.40533 69.4694 6.88H71.2934C71.1227 6.40533 70.9574 5.96267 70.7974 5.552C70.6374 5.14133 70.4987 4.8 70.3814 4.528ZM78.5861 8.128V9H75.0821V3.456H76.0901V8.128H78.5861Z" fill="black"/>
<path d="M28.7408 145.18C28.1168 145.18 27.5568 145.084 27.0608 144.892C26.5648 144.7 26.1448 144.42 25.8008 144.052C25.4568 143.676 25.1928 143.22 25.0088 142.684C24.8248 142.148 24.7328 141.532 24.7328 140.836C24.7328 140.14 24.8368 139.524 25.0448 138.988C25.2608 138.452 25.5528 138 25.9208 137.632C26.2888 137.256 26.7208 136.972 27.2168 136.78C27.7128 136.588 28.2448 136.492 28.8128 136.492C29.1568 136.492 29.4688 136.52 29.7488 136.576C30.0288 136.624 30.2728 136.68 30.4808 136.744C30.6888 136.808 30.8608 136.876 30.9968 136.948C31.1328 137.02 31.2288 137.072 31.2848 137.104L30.8408 138.34C30.6488 138.22 30.3728 138.108 30.0128 138.004C29.6608 137.892 29.2768 137.836 28.8608 137.836C28.5008 137.836 28.1648 137.9 27.8528 138.028C27.5408 138.148 27.2688 138.332 27.0368 138.58C26.8128 138.828 26.6368 139.14 26.5088 139.516C26.3808 139.892 26.3168 140.328 26.3168 140.824C26.3168 141.264 26.3648 141.668 26.4608 142.036C26.5648 142.404 26.7208 142.724 26.9288 142.996C27.1368 143.26 27.4008 143.468 27.7208 143.62C28.0408 143.764 28.4248 143.836 28.8728 143.836C29.4088 143.836 29.8448 143.784 30.1808 143.68C30.5168 143.568 30.7768 143.464 30.9608 143.368L31.3688 144.604C31.2728 144.668 31.1408 144.732 30.9728 144.796C30.8128 144.86 30.6208 144.924 30.3968 144.988C30.1728 145.044 29.9208 145.088 29.6408 145.12C29.3608 145.16 29.0608 145.18 28.7408 145.18ZM36.2012 140.032C36.0812 139.992 35.9132 139.952 35.6972 139.912C35.4892 139.864 35.2452 139.84 34.9652 139.84C34.8052 139.84 34.6332 139.856 34.4492 139.888C34.2732 139.92 34.1492 139.948 34.0772 139.972V145H32.6252V139.024C32.9052 138.92 33.2532 138.824 33.6692 138.736C34.0932 138.64 34.5612 138.592 35.0732 138.592C35.1692 138.592 35.2812 138.6 35.4092 138.616C35.5372 138.624 35.6652 138.64 35.7932 138.664C35.9212 138.68 36.0452 138.704 36.1652 138.736C36.2852 138.76 36.3812 138.784 36.4532 138.808L36.2012 140.032ZM37.117 141.892C37.117 141.34 37.197 140.856 37.357 140.44C37.525 140.024 37.745 139.68 38.017 139.408C38.289 139.128 38.601 138.92 38.953 138.784C39.305 138.64 39.665 138.568 40.033 138.568C40.897 138.568 41.569 138.836 42.049 139.372C42.537 139.908 42.781 140.708 42.781 141.772C42.781 141.852 42.777 141.944 42.769 142.048C42.769 142.144 42.765 142.232 42.757 142.312H38.617C38.657 142.816 38.833 143.208 39.145 143.488C39.465 143.76 39.925 143.896 40.525 143.896C40.877 143.896 41.197 143.864 41.485 143.8C41.781 143.736 42.013 143.668 42.181 143.596L42.373 144.784C42.293 144.824 42.181 144.868 42.037 144.916C41.901 144.956 41.741 144.992 41.557 145.024C41.381 145.064 41.189 145.096 40.981 145.12C40.773 145.144 40.561 145.156 40.345 145.156C39.793 145.156 39.313 145.076 38.905 144.916C38.497 144.748 38.161 144.52 37.897 144.232C37.633 143.936 37.437 143.592 37.309 143.2C37.181 142.8 37.117 142.364 37.117 141.892ZM41.329 141.244C41.329 141.044 41.301 140.856 41.245 140.68C41.189 140.496 41.105 140.34 40.993 140.212C40.889 140.076 40.757 139.972 40.597 139.9C40.445 139.82 40.261 139.78 40.045 139.78C39.821 139.78 39.625 139.824 39.457 139.912C39.289 139.992 39.145 140.1 39.025 140.236C38.913 140.372 38.825 140.528 38.761 140.704C38.697 140.88 38.653 141.06 38.629 141.244H41.329ZM45.4605 141.844C45.4605 142.484 45.6125 142.988 45.9165 143.356C46.2205 143.716 46.6405 143.896 47.1765 143.896C47.4085 143.896 47.6045 143.888 47.7645 143.872C47.9325 143.848 48.0685 143.824 48.1725 143.8V140.2C48.0445 140.112 47.8725 140.032 47.6565 139.96C47.4485 139.88 47.2245 139.84 46.9845 139.84C46.4565 139.84 46.0685 140.02 45.8205 140.38C45.5805 140.74 45.4605 141.228 45.4605 141.844ZM49.6245 144.808C49.3365 144.896 48.9725 144.976 48.5325 145.048C48.1005 145.12 47.6445 145.156 47.1645 145.156C46.6685 145.156 46.2245 145.08 45.8325 144.928C45.4405 144.776 45.1045 144.56 44.8245 144.28C44.5525 143.992 44.3405 143.648 44.1885 143.248C44.0445 142.84 43.9725 142.384 43.9725 141.88C43.9725 141.384 44.0325 140.936 44.1525 140.536C44.2805 140.128 44.4645 139.78 44.7045 139.492C44.9445 139.204 45.2365 138.984 45.5805 138.832C45.9245 138.672 46.3205 138.592 46.7685 138.592C47.0725 138.592 47.3405 138.628 47.5725 138.7C47.8045 138.772 48.0045 138.852 48.1725 138.94V135.928L49.6245 135.688V144.808ZM52.9329 145H51.4809V138.724H52.9329V145ZM53.0889 136.888C53.0889 137.16 53.0009 137.376 52.8249 137.536C52.6489 137.696 52.4409 137.776 52.2009 137.776C51.9529 137.776 51.7409 137.696 51.5649 137.536C51.3889 137.376 51.3009 137.16 51.3009 136.888C51.3009 136.608 51.3889 136.388 51.5649 136.228C51.7409 136.068 51.9529 135.988 52.2009 135.988C52.4409 135.988 52.6489 136.068 52.8249 136.228C53.0009 136.388 53.0889 136.608 53.0889 136.888ZM54.7133 137.068L56.1653 136.828V138.724H58.3973V139.936H56.1653V142.492C56.1653 142.996 56.2453 143.356 56.4053 143.572C56.5653 143.788 56.8373 143.896 57.2213 143.896C57.4853 143.896 57.7173 143.868 57.9173 143.812C58.1253 143.756 58.2893 143.704 58.4093 143.656L58.6493 144.808C58.4813 144.88 58.2613 144.952 57.9893 145.024C57.7173 145.104 57.3973 145.144 57.0293 145.144C56.5813 145.144 56.2053 145.084 55.9013 144.964C55.6053 144.844 55.3693 144.672 55.1933 144.448C55.0173 144.216 54.8933 143.94 54.8213 143.62C54.7493 143.292 54.7133 142.92 54.7133 142.504V137.068ZM65.0257 136.6C66.2337 136.6 67.1577 136.82 67.7977 137.26C68.4457 137.7 68.7697 138.388 68.7697 139.324C68.7697 139.812 68.6817 140.232 68.5057 140.584C68.3377 140.928 68.0897 141.212 67.7617 141.436C67.4337 141.652 67.0337 141.812 66.5617 141.916C66.0897 142.02 65.5497 142.072 64.9417 142.072H64.1857V145H62.6737V136.804C63.0257 136.724 63.4137 136.672 63.8377 136.648C64.2697 136.616 64.6657 136.6 65.0257 136.6ZM65.1337 137.908C64.7497 137.908 64.4337 137.92 64.1857 137.944V140.776H64.9177C65.6457 140.776 66.2057 140.676 66.5977 140.476C66.9897 140.268 67.1857 139.88 67.1857 139.312C67.1857 139.04 67.1337 138.812 67.0297 138.628C66.9257 138.444 66.7817 138.3 66.5977 138.196C66.4137 138.092 66.1937 138.02 65.9377 137.98C65.6897 137.932 65.4217 137.908 65.1337 137.908ZM75.5434 141.856C75.5434 142.352 75.4714 142.804 75.3274 143.212C75.1834 143.62 74.9794 143.968 74.7154 144.256C74.4514 144.544 74.1314 144.768 73.7554 144.928C73.3874 145.088 72.9794 145.168 72.5314 145.168C72.0834 145.168 71.6754 145.088 71.3074 144.928C70.9394 144.768 70.6234 144.544 70.3594 144.256C70.0954 143.968 69.8874 143.62 69.7354 143.212C69.5914 142.804 69.5194 142.352 69.5194 141.856C69.5194 141.36 69.5914 140.912 69.7354 140.512C69.8874 140.104 70.0954 139.756 70.3594 139.468C70.6314 139.18 70.9514 138.96 71.3194 138.808C71.6874 138.648 72.0914 138.568 72.5314 138.568C72.9714 138.568 73.3754 138.648 73.7434 138.808C74.1194 138.96 74.4394 139.18 74.7034 139.468C74.9674 139.756 75.1714 140.104 75.3154 140.512C75.4674 140.912 75.5434 141.36 75.5434 141.856ZM74.0554 141.856C74.0554 141.232 73.9194 140.74 73.6474 140.38C73.3834 140.012 73.0114 139.828 72.5314 139.828C72.0514 139.828 71.6754 140.012 71.4034 140.38C71.1394 140.74 71.0074 141.232 71.0074 141.856C71.0074 142.488 71.1394 142.988 71.4034 143.356C71.6754 143.724 72.0514 143.908 72.5314 143.908C73.0114 143.908 73.3834 143.724 73.6474 143.356C73.9194 142.988 74.0554 142.488 74.0554 141.856ZM78.5032 145H77.0512V138.724H78.5032V145ZM78.6592 136.888C78.6592 137.16 78.5712 137.376 78.3952 137.536C78.2192 137.696 78.0112 137.776 77.7712 137.776C77.5232 137.776 77.3112 137.696 77.1352 137.536C76.9592 137.376 76.8712 137.16 76.8712 136.888C76.8712 136.608 76.9592 136.388 77.1352 136.228C77.3112 136.068 77.5232 135.988 77.7712 135.988C78.0112 135.988 78.2192 136.068 78.3952 136.228C78.5712 136.388 78.6592 136.608 78.6592 136.888ZM80.3556 138.928C80.6356 138.848 80.9996 138.772 81.4476 138.7C81.8956 138.628 82.3916 138.592 82.9356 138.592C83.4476 138.592 83.8756 138.664 84.2196 138.808C84.5636 138.944 84.8356 139.14 85.0356 139.396C85.2436 139.644 85.3876 139.948 85.4676 140.308C85.5556 140.66 85.5996 141.048 85.5996 141.472V145H84.1476V141.7C84.1476 141.364 84.1236 141.08 84.0756 140.848C84.0356 140.608 83.9636 140.416 83.8596 140.272C83.7636 140.12 83.6276 140.012 83.4516 139.948C83.2836 139.876 83.0756 139.84 82.8276 139.84C82.6436 139.84 82.4516 139.852 82.2516 139.876C82.0516 139.9 81.9036 139.92 81.8076 139.936V145H80.3556V138.928ZM87.3032 137.068L88.7552 136.828V138.724H90.9872V139.936H88.7552V142.492C88.7552 142.996 88.8352 143.356 88.9952 143.572C89.1552 143.788 89.4272 143.896 89.8112 143.896C90.0752 143.896 90.3072 143.868 90.5072 143.812C90.7152 143.756 90.8792 143.704 90.9992 143.656L91.2392 144.808C91.0712 144.88 90.8512 144.952 90.5792 145.024C90.3072 145.104 89.9872 145.144 89.6192 145.144C89.1712 145.144 88.7952 145.084 88.4912 144.964C88.1952 144.844 87.9592 144.672 87.7832 144.448C87.6072 144.216 87.4832 143.94 87.4112 143.62C87.3392 143.292 87.3032 142.92 87.3032 142.504V137.068ZM93.9628 143.956C94.3468 143.956 94.6268 143.912 94.8028 143.824C94.9788 143.728 95.0668 143.568 95.0668 143.344C95.0668 143.136 94.9708 142.964 94.7788 142.828C94.5948 142.692 94.2868 142.544 93.8548 142.384C93.5908 142.288 93.3468 142.188 93.1228 142.084C92.9068 141.972 92.7188 141.844 92.5588 141.7C92.3988 141.556 92.2708 141.384 92.1748 141.184C92.0868 140.976 92.0428 140.724 92.0428 140.428C92.0428 139.852 92.2548 139.4 92.6788 139.072C93.1028 138.736 93.6788 138.568 94.4068 138.568C94.7748 138.568 95.1268 138.604 95.4628 138.676C95.7988 138.74 96.0508 138.804 96.2188 138.868L95.9548 140.044C95.7948 139.972 95.5908 139.908 95.3428 139.852C95.0948 139.788 94.8068 139.756 94.4788 139.756C94.1828 139.756 93.9428 139.808 93.7588 139.912C93.5748 140.008 93.4828 140.16 93.4828 140.368C93.4828 140.472 93.4988 140.564 93.5308 140.644C93.5708 140.724 93.6348 140.8 93.7228 140.872C93.8108 140.936 93.9268 141.004 94.0708 141.076C94.2148 141.14 94.3908 141.208 94.5988 141.28C94.9428 141.408 95.2348 141.536 95.4748 141.664C95.7148 141.784 95.9108 141.924 96.0628 142.084C96.2228 142.236 96.3388 142.412 96.4108 142.612C96.4828 142.812 96.5188 143.052 96.5188 143.332C96.5188 143.932 96.2948 144.388 95.8468 144.7C95.4068 145.004 94.7748 145.156 93.9508 145.156C93.3988 145.156 92.9548 145.108 92.6188 145.012C92.2828 144.924 92.0468 144.852 91.9108 144.796L92.1628 143.584C92.3788 143.672 92.6348 143.756 92.9308 143.836C93.2348 143.916 93.5788 143.956 93.9628 143.956Z" fill="white"/>
<defs>
<linearGradient id="paint0_linear_96_374" x1="60" y1="0" x2="60" y2="160" gradientUnits="userSpaceOnUse">
<stop/>
<stop offset="1" stop-color="#200041"/>
</linearGradient>
<linearGradient id="paint1_linear_96_374" x1="0" y1="80" x2="120" y2="80" gradientUnits="userSpaceOnUse">
<stop stop-color="#FFB866"/>
<stop offset="1" stop-color="#CC66FF"/>
</linearGradient>
<linearGradient id="paint2_linear_96_374" x1="60" y1="28" x2="60" y2="108" gradientUnits="userSpaceOnUse">
<stop stop-color="#FFBF66"/>
<stop offset="1" stop-color="#FF8800"/>
</linearGradient>
<linearGradient id="paint3_linear_96_374" x1="60" y1="28" x2="60" y2="108" gradientUnits="userSpaceOnUse">
<stop stop-color="#FFDAA6"/>
<stop offset="1" stop-color="#FF8800"/>
</linearGradient>
<linearGradient id="paint4_linear_96_374" x1="60" y1="30" x2="60" y2="106" gradientUnits="userSpaceOnUse">
<stop stop-color="#3C0059"/>
<stop offset="1" stop-color="#200041"/>
</linearGradient>
<linearGradient id="paint5_linear_96_374" x1="60" y1="30" x2="60" y2="106" gradientUnits="userSpaceOnUse">
<stop stop-color="#CC6D00"/>
<stop offset="1" stop-color="#FFE6B3"/>
</linearGradient>
<linearGradient id="paint6_linear_96_374" x1="60" y1="33" x2="60" y2="103" gradientUnits="userSpaceOnUse">
<stop stop-color="#3C0059"/>
<stop offset="1" stop-color="#200040"/>
</linearGradient>
<linearGradient id="paint7_linear_96_374" x1="60" y1="33" x2="60" y2="103" gradientUnits="userSpaceOnUse">
<stop stop-color="#FFBF66"/>
<stop offset="1" stop-color="#FF8800"/>
</linearGradient>
<linearGradient id="paint8_linear_96_374" x1="60" y1="33" x2="60" y2="103" gradientUnits="userSpaceOnUse">
<stop stop-color="#FFBF66"/>
<stop offset="1" stop-color="#FF8800"/>
</linearGradient>
<linearGradient id="paint9_linear_96_374" x1="47.75" y1="53" x2="47.75" y2="60.5" gradientUnits="userSpaceOnUse">
<stop stop-color="#3C0059"/>
<stop offset="1" stop-color="#200040"/>
</linearGradient>
<linearGradient id="paint10_linear_96_374" x1="47.75" y1="53" x2="47.75" y2="60.5" gradientUnits="userSpaceOnUse">
<stop stop-color="#FFBF66"/>
<stop offset="1" stop-color="#FF8800"/>
</linearGradient>
<linearGradient id="paint11_linear_96_374" x1="55.125" y1="53" x2="55.125" y2="60.5" gradientUnits="userSpaceOnUse">
<stop stop-color="#3C0059"/>
<stop offset="1" stop-color="#200040"/>
</linearGradient>
<linearGradient id="paint12_linear_96_374" x1="55.125" y1="53" x2="55.125" y2="60.5" gradientUnits="userSpaceOnUse">
<stop stop-color="#FFBF66"/>
<stop offset="1" stop-color="#FF8800"/>
</linearGradient>
<linearGradient id="paint13_linear_96_374" x1="60" y1="53" x2="60" y2="60.5" gradientUnits="userSpaceOnUse">
<stop stop-color="#3C0059"/>
<stop offset="1" stop-color="#200040"/>
</linearGradient>
<linearGradient id="paint14_linear_96_374" x1="60" y1="53" x2="60" y2="60.5" gradientUnits="userSpaceOnUse">
<stop stop-color="#FFBF66"/>
<stop offset="1" stop-color="#FF8800"/>
</linearGradient>
<linearGradient id="paint15_linear_96_374" x1="64.875" y1="53" x2="64.875" y2="60.5" gradientUnits="userSpaceOnUse">
<stop stop-color="#3C0059"/>
<stop offset="1" stop-color="#200040"/>
</linearGradient>
<linearGradient id="paint16_linear_96_374" x1="64.875" y1="53" x2="64.875" y2="60.5" gradientUnits="userSpaceOnUse">
<stop stop-color="#FFBF66"/>
<stop offset="1" stop-color="#FF8800"/>
</linearGradient>
<linearGradient id="paint17_linear_96_374" x1="72.25" y1="53" x2="72.25" y2="60.5" gradientUnits="userSpaceOnUse">
<stop stop-color="#3C0059"/>
<stop offset="1" stop-color="#200040"/>
</linearGradient>
<linearGradient id="paint18_linear_96_374" x1="72.25" y1="53" x2="72.25" y2="60.5" gradientUnits="userSpaceOnUse">
<stop stop-color="#FFBF66"/>
<stop offset="1" stop-color="#FF8800"/>
</linearGradient>
<linearGradient id="paint19_linear_96_374" x1="60" y1="60.5" x2="60" y2="85" gradientUnits="userSpaceOnUse">
<stop stop-color="#3C0059"/>
<stop offset="1" stop-color="#200040"/>
</linearGradient>
<linearGradient id="paint20_linear_96_374" x1="60" y1="60.5" x2="60" y2="85" gradientUnits="userSpaceOnUse">
<stop stop-color="#FF8800"/>
<stop offset="1" stop-color="#FFBF66"/>
</linearGradient>
<linearGradient id="paint21_linear_96_374" x1="60" y1="60.5" x2="60" y2="85" gradientUnits="userSpaceOnUse">
<stop stop-color="#3C0059"/>
<stop offset="1" stop-color="#200040"/>
</linearGradient>
<linearGradient id="paint22_linear_96_374" x1="60" y1="60.5" x2="60" y2="85" gradientUnits="userSpaceOnUse">
<stop stop-color="#FF8800"/>
<stop offset="1" stop-color="#FFBF66"/>
</linearGradient>
<linearGradient id="paint23_linear_96_374" x1="35.6056" y1="68.8139" x2="29.6157" y2="69.161" gradientUnits="userSpaceOnUse">
<stop stop-color="#FFBB5D"/>
<stop offset="1" stop-color="#FF8901"/>
</linearGradient>
<linearGradient id="paint24_linear_96_374" x1="35.9825" y1="72.1837" x2="30.0975" y2="73.3529" gradientUnits="userSpaceOnUse">
<stop stop-color="#FFBB5D"/>
<stop offset="1" stop-color="#FF8901"/>
</linearGradient>
<linearGradient id="paint25_linear_96_374" x1="36.7985" y1="75.3865" x2="31.0986" y2="77.2601" gradientUnits="userSpaceOnUse">
<stop stop-color="#FFBB5D"/>
<stop offset="1" stop-color="#FF8901"/>
</linearGradient>
<linearGradient id="paint26_linear_96_374" x1="37.7442" y1="77.8297" x2="32.3186" y2="80.3915" gradientUnits="userSpaceOnUse">
<stop stop-color="#FFBB5D"/>
<stop offset="1" stop-color="#FF8901"/>
</linearGradient>
<linearGradient id="paint27_linear_96_374" x1="39.3453" y1="80.8012" x2="34.3068" y2="84.0591" gradientUnits="userSpaceOnUse">
<stop stop-color="#FFBB5D"/>
<stop offset="1" stop-color="#FF8901"/>
</linearGradient>
<linearGradient id="paint28_linear_96_374" x1="41.7092" y1="83.9631" x2="37.3004" y2="88.0328" gradientUnits="userSpaceOnUse">
<stop stop-color="#FFBB5D"/>
<stop offset="1" stop-color="#FF8901"/>
</linearGradient>
<linearGradient id="paint29_linear_96_374" x1="45.0207" y1="87.0724" x2="41.3338" y2="91.806" gradientUnits="userSpaceOnUse">
<stop stop-color="#FFBB5D"/>
<stop offset="1" stop-color="#FF8901"/>
</linearGradient>
<linearGradient id="paint30_linear_96_374" x1="51.5282" y1="90.7171" x2="49.505" y2="96.3657" gradientUnits="userSpaceOnUse">
<stop stop-color="#FFBB5D"/>
<stop offset="1" stop-color="#FF8901"/>
</linearGradient>
<linearGradient id="paint31_linear_96_374" x1="55.486" y1="91.8208" x2="54.4295" y2="97.7271" gradientUnits="userSpaceOnUse">
<stop stop-color="#FFBB5D"/>
<stop offset="1" stop-color="#FF8901"/>
</linearGradient>
<linearGradient id="paint32_linear_96_374" x1="59.4533" y1="92.2425" x2="59.3375" y2="98.2414" gradientUnits="userSpaceOnUse">
<stop stop-color="#FFBB5D"/>
<stop offset="1" stop-color="#FF8901"/>
</linearGradient>
<linearGradient id="paint33_linear_96_374" x1="63.7352" y1="91.9806" x2="64.6329" y2="97.9131" gradientUnits="userSpaceOnUse">
<stop stop-color="#FFBB5D"/>
<stop offset="1" stop-color="#FF8901"/>
</linearGradient>
<linearGradient id="paint34_linear_96_374" x1="66.7049" y1="91.3506" x2="68.4273" y2="97.0981" gradientUnits="userSpaceOnUse">
<stop stop-color="#FFBB5D"/>
<stop offset="1" stop-color="#FF8901"/>
</linearGradient>
<linearGradient id="paint35_linear_96_374" x1="69.8504" y1="90.2288" x2="72.2903" y2="95.7103" gradientUnits="userSpaceOnUse">
<stop stop-color="#FFBB5D"/>
<stop offset="1" stop-color="#FF8901"/>
</linearGradient>
<linearGradient id="paint36_linear_96_374" x1="76.4098" y1="86.0226" x2="80.4635" y2="90.4461" gradientUnits="userSpaceOnUse">
<stop stop-color="#FFBB5D"/>
<stop offset="1" stop-color="#FF8901"/>
</linearGradient>
<linearGradient id="paint37_linear_96_374" x1="79.5094" y1="82.6853" x2="84.283" y2="86.3202" gradientUnits="userSpaceOnUse">
<stop stop-color="#FFBB5D"/>
<stop offset="1" stop-color="#FF8901"/>
</linearGradient>
<linearGradient id="paint38_linear_96_374" x1="81.3098" y1="80.0054" x2="86.5527" y2="82.9229" gradientUnits="userSpaceOnUse">
<stop stop-color="#FFBB5D"/>
<stop offset="1" stop-color="#FF8901"/>
</linearGradient>
<linearGradient id="paint39_linear_96_374" x1="82.9569" y1="76.5554" x2="88.5585" y2="78.7053" gradientUnits="userSpaceOnUse">
<stop stop-color="#FFBB5D"/>
<stop offset="1" stop-color="#FF8901"/>
</linearGradient>
<linearGradient id="paint40_linear_96_374" x1="84.089" y1="72.6884" x2="89.974" y2="73.8576" gradientUnits="userSpaceOnUse">
<stop stop-color="#FFBB5D"/>
<stop offset="1" stop-color="#FF8901"/>
</linearGradient>
<linearGradient id="paint41_linear_96_374" x1="84.558" y1="68.9381" x2="90.5526" y2="69.1927" gradientUnits="userSpaceOnUse">
<stop stop-color="#FFBB5D"/>
<stop offset="1" stop-color="#FF8901"/>
</linearGradient>
<linearGradient id="paint42_linear_96_374" x1="24" y1="6" x2="96" y2="6" gradientUnits="userSpaceOnUse">
<stop stop-color="#FFB866"/>
<stop offset="1" stop-color="#CC66FF"/>
</linearGradient>
<clipPath id="clip0_96_374">
<rect width="80" height="80" fill="white" transform="translate(20 28)"/>
</clipPath>
</defs>
</svg>
