<svg width="64" height="64" viewBox="0 0 64 64" fill="none" xmlns="http://www.w3.org/2000/svg">
<g clip-path="url(#clip0_233_311)">
<circle cx="32" cy="32" r="32" fill="#F7931A"/>
<path d="M16 29.5616C16 28.2604 17.2228 27.3057 18.4851 27.6213L31.5149 30.8787C31.8334 30.9584 32.1666 30.9584 32.4851 30.8787L45.5149 27.6213C46.7772 27.3057 48 28.2604 48 29.5616V43C48 45.2091 46.2091 47 44 47H20C17.7909 47 16 45.2091 16 43V29.5616Z" fill="white"/>
<path d="M22 19C22 17.8954 22.8954 17 24 17H40C41.1046 17 42 17.8954 42 19V25.3604C42 26.3138 41.3271 27.1346 40.3922 27.3216L32.3922 28.9216C32.1333 28.9733 31.8667 28.9733 31.6078 28.9216L23.6078 27.3216C22.6729 27.1346 22 26.3138 22 25.3604V19Z" fill="white"/>
<rect x="25" y="20" width="14" height="1" rx="0.5" fill="#F7931A"/>
<rect x="25" y="23" width="10" height="1" rx="0.5" fill="#F7931A"/>
</g>
<defs>
<clipPath id="clip0_233_311">
<rect width="64" height="64" fill="white"/>
</clipPath>
</defs>
</svg>
