<svg width="64" height="64" viewBox="0 0 64 64" fill="none" xmlns="http://www.w3.org/2000/svg">
<g clip-path="url(#clip0_233_302)">
<mask id="mask0_233_302" style="mask-type:luminance" maskUnits="userSpaceOnUse" x="0" y="0" width="64" height="64">
<path d="M64 0H0V64H64V0Z" fill="white"/>
</mask>
<g mask="url(#mask0_233_302)">
<path d="M63.0427 39.7408C58.7667 56.8836 41.4027 67.3169 24.256 63.0422C7.11649 58.768 -3.31819 41.4043 0.958697 24.2625C5.2316 7.11809 22.5969 -3.31658 39.7378 0.957643C56.8822 5.23186 67.3164 22.5968 63.0427 39.7408Z" fill="#F7931A"/>
<path d="M46.1049 27.4412C46.7418 23.1825 43.4991 20.8941 39.0658 19.367L40.5036 13.599L36.9929 12.7239L35.5924 18.3399C34.6684 18.1097 33.7213 17.8928 32.7787 17.6781L34.188 12.0248L30.6796 11.1497L29.24 16.9168C28.476 16.7425 27.7262 16.571 26.9978 16.3897L27.0013 16.3719L22.1596 15.163L21.2253 18.9128C21.2253 18.9128 23.8302 19.5097 23.7751 19.547C25.1973 19.9021 25.4538 20.843 25.4111 21.5888L23.7733 28.1599C23.8711 28.1852 23.9978 28.2203 24.1382 28.2772C24.0209 28.2479 23.896 28.2163 23.7676 28.1852L21.4716 37.3897C21.2973 37.8217 20.856 38.4701 19.8622 38.2239C19.8973 38.2745 17.3089 37.587 17.3089 37.587L15.5667 41.6052L20.1356 42.7443C20.9849 42.9572 21.8191 43.1794 22.6387 43.3901L21.1867 49.2245L24.6938 50.0996L26.1324 44.3274C27.0916 44.5871 28.0213 44.8276 28.9316 45.0538L27.4978 50.7987L31.0089 51.6738L32.4622 45.8507C38.4502 46.9831 42.9529 46.5262 44.8471 41.1114C46.3747 36.7514 44.7716 34.2363 41.6213 32.5959C43.9151 32.067 45.644 30.5577 46.1049 27.4412ZM38.0831 38.6905C36.9969 43.051 29.6564 40.6937 27.2751 40.1021L29.2031 32.3737C31.5831 32.967 39.2164 34.143 38.0831 38.6905ZM39.1676 27.3785C38.1782 31.3448 32.0676 29.3292 30.0853 28.835L31.8329 21.8252C33.8147 22.3194 40.1991 23.2417 39.1676 27.3785Z" fill="white"/>
</g>
</g>
<defs>
<clipPath id="clip0_233_302">
<rect width="64" height="64" fill="white"/>
</clipPath>
</defs>
</svg>
