<svg width="64" height="64" viewBox="0 0 64 64" fill="none" xmlns="http://www.w3.org/2000/svg">
<g clip-path="url(#clip0_410_211)">
<circle cx="32" cy="32" r="32" fill="#F7931A"/>
<path d="M16 26C16 23.7909 17.7909 22 20 22H44C46.2091 22 48 23.7909 48 26V42C48 44.2091 46.2091 46 44 46H20C17.7909 46 16 44.2091 16 42V26Z" fill="white"/>
<path d="M25 33L31 38L39 29" stroke="#F7931A" stroke-width="3" stroke-linecap="round" stroke-linejoin="round"/>
<path d="M24 20C24 18.8954 24.8954 18 26 18H27C28.1046 18 29 18.8954 29 20V24H24V20Z" fill="white"/>
<path d="M35 20C35 18.8954 35.8954 18 37 18H38C39.1046 18 40 18.8954 40 20V24H35V20Z" fill="white"/>
</g>
<defs>
<clipPath id="clip0_410_211">
<rect width="64" height="64" fill="white"/>
</clipPath>
</defs>
</svg>
