<svg width="40" height="40" viewBox="0 0 40 40" fill="none" xmlns="http://www.w3.org/2000/svg">
<g clip-path="url(#clip0_358_258)">
<circle cx="20.0022" cy="20.0024" r="20.0022" fill="#F7931A"/>
<path d="M28.8179 17.1527C29.2161 14.4908 27.1895 13.06 24.4183 12.1054L25.3173 8.49972L23.1224 7.9528L22.2473 11.4636C21.6702 11.3197 21.0777 11.1841 20.4887 11.0496L21.3702 7.51567L19.1766 6.96875L18.2772 10.5733C17.7997 10.4646 17.3307 10.3571 16.8756 10.2439L16.8782 10.2326L13.8513 9.47672L13.2675 11.821C13.2675 11.821 14.8959 12.1943 14.8616 12.2173C15.7504 12.4391 15.9111 13.0275 15.8845 13.4939L14.8604 17.6016C14.9216 17.6172 15.001 17.6397 15.0886 17.6749C15.0154 17.6567 14.9375 17.6368 14.8566 17.6175L13.4213 23.3719C13.3126 23.6419 13.0369 24.0472 12.4155 23.8933C12.4375 23.9251 10.8202 23.4952 10.8202 23.4952L9.73047 26.0076L12.5868 26.7197C13.1182 26.8529 13.6389 26.9924 14.1517 27.1235L13.2434 30.7705L15.4358 31.3175L16.3353 27.7091C16.9342 27.8717 17.5154 28.0217 18.0845 28.163L17.188 31.7544L19.383 32.3013L20.2912 28.6611C24.034 29.3694 26.8483 29.0838 28.0329 25.6985C28.9874 22.9729 27.9853 21.4007 26.0163 20.3755C27.4504 20.0448 28.5307 19.1015 28.8187 17.153L28.818 17.1525L28.8179 17.1527ZM23.8031 24.1848C23.1247 26.9104 18.5357 25.437 17.0478 25.0676L18.2531 20.2358C19.7409 20.6073 24.512 21.3423 23.8032 24.1848H23.8031ZM24.4819 17.1132C23.8631 19.5924 20.0436 18.3328 18.8045 18.024L19.8973 13.6419C21.1363 13.9507 25.1265 14.5272 24.4821 17.1132H24.4819Z" fill="white"/>
</g>
<defs>
<clipPath id="clip0_358_258">
<rect width="40" height="40.0045" fill="white"/>
</clipPath>
</defs>
</svg>
