<svg width="32" height="32" viewBox="0 0 32 32" fill="none" xmlns="http://www.w3.org/2000/svg">
<g clip-path="url(#clip0_3456_2448)">
<path d="M0.842041 16.5835C0.842041 24.6307 7.62941 31.1553 15.9999 31.1553C24.3705 31.1553 31.1578 24.6307 31.1578 16.5835C31.1578 8.53467 24.3705 2.01172 15.9999 2.01172C7.62941 2.01172 0.842041 8.53467 0.842041 16.5835Z" fill="#F4AE60"/>
<path d="M0.842041 15.4119C0.842041 23.4607 7.62941 29.9837 15.9999 29.9837C24.3705 29.9837 31.1578 23.4607 31.1578 15.4119C31.1578 7.36475 24.3705 0.841797 15.9999 0.841797C7.62941 0.841797 0.842041 7.36475 0.842041 15.4119Z" fill="#FFE071"/>
<path d="M5.25977 15.4121C5.25977 21.1148 10.0682 25.7363 16 25.7363C21.9318 25.7363 26.7402 21.1148 26.7402 15.4121C26.7402 9.70936 21.9318 5.08789 16 5.08789C10.0682 5.08789 5.25977 9.70936 5.25977 15.4104V15.4121Z" fill="#FFC654"/>
<path d="M16.0001 3.86719C22.6275 3.86719 28.0085 9.04108 28.0085 15.4125C28.0085 21.7855 22.6275 26.9577 16.0001 26.9577C9.37275 26.9577 3.9917 21.7855 3.9917 15.4125C3.9917 9.04108 9.37275 3.86719 16.0001 3.86719ZM16.0001 5.08824C10.0717 5.08824 5.25991 9.71477 5.25991 15.4125C5.25991 21.1118 10.0734 25.7367 16.0001 25.7367C21.9285 25.7367 26.7403 21.1118 26.7403 15.4125C26.7403 9.71477 21.9269 5.08824 16.0001 5.08824Z" fill="#FA7B4D"/>
<path d="M16.0001 3.86719C22.6275 3.86719 28.0085 9.04108 28.0085 15.4125C28.0085 21.7855 22.6275 26.9577 16.0001 26.9577C9.37275 26.9577 3.9917 21.7855 3.9917 15.4125C3.9917 9.04108 9.37275 3.86719 16.0001 3.86719ZM16.0001 5.08824C10.0717 5.08824 5.25991 9.71477 5.25991 15.4125C5.25991 21.1118 10.0734 25.7367 16.0001 25.7367C21.9285 25.7367 26.7403 21.1118 26.7403 15.4125C26.7403 9.71477 21.9269 5.08824 16.0001 5.08824Z" fill="#FAAB4D"/>
<path d="M15.3178 23.0695H17.4264V21.3247C19.5704 20.944 20.6332 19.6825 20.6332 18.0691C20.6332 14.9145 15.2269 14.987 15.2269 13.5065C15.2269 12.7739 15.7321 12.496 16.6871 12.496C17.5174 12.496 18.1658 12.7739 18.9035 13.3162L20.49 11.8207C19.6409 11.0473 18.5682 10.5637 17.4264 10.4396V8.74023H15.3178V10.4716C13.354 10.795 12.1835 11.9537 12.1835 13.6261C12.1835 16.6173 17.5713 16.6628 17.5713 18.2611C17.5713 18.9785 17.0829 19.3322 15.9679 19.3322C15.0298 19.3322 14.1287 19.024 13.066 18.3638L11.6614 20.1238C12.6702 20.8564 14.1119 21.296 15.3178 21.4139V23.0712V23.0695Z" fill="#F2924E"/>
<path d="M15.3178 22.3388H17.4264V20.5922C19.5704 20.2116 20.6332 18.9501 20.6332 17.3367C20.6332 14.1821 15.2269 14.2545 15.2269 12.7741C15.2269 12.0415 15.7321 11.7636 16.6871 11.7636C17.5174 11.7636 18.1658 12.0415 18.9035 12.5838L20.49 11.0882C19.6407 10.3155 18.568 9.83253 17.4264 9.70887V8.00781H15.3178V9.73918C13.354 10.0609 12.1835 11.2213 12.1835 12.892C12.1835 15.8849 17.5713 15.9287 17.5713 17.527C17.5713 18.2461 17.0829 18.5981 15.9679 18.5981C15.0298 18.5981 14.1287 18.2899 13.066 17.6297L11.6614 19.3897C12.6702 20.1223 14.1119 20.5636 15.3178 20.6798V22.3388Z" fill="#FFF89F"/>
</g>
<defs>
<clipPath id="clip0_3456_2448">
<rect width="32" height="32" fill="white"/>
</clipPath>
</defs>
</svg>
